<svg id="Capa_1" data-name="Capa 1" xmlns="http://www.w3.org/2000/svg" viewBox="0 0 576 512">
  <path d="M408,5.64a18.26,18.26,0,0,1,17.07,11.79L457.5,102a50.52,50.52,0,0,1-11.41,53.67l-57.4,57.4-17,17,22.78-7.59,80.4-26.8a13.81,13.81,0,0,0,8.69-8.69l18.9-56.8a18.36,18.36,0,1,1,34.84,11.62l-18.9,56.79a50.75,50.75,0,0,1-31.82,31.82l-60.5,20.2L410,256l16.12,5.38,60.59,20.2a50.75,50.75,0,0,1,31.82,31.81l18.9,56.8a18.36,18.36,0,1,1-34.84,11.62L483.68,325a13.81,13.81,0,0,0-8.69-8.69l-80.4-26.8-22.78-7.59,17,17,57.41,57.41A50.34,50.34,0,0,1,457.61,410L425.1,494.49A18.1,18.1,0,0,1,408,506.21a18.49,18.49,0,0,1-6.6-1.21,18.23,18.23,0,0,1-10.52-23.67l32.51-84.62a13.69,13.69,0,0,0-3.09-14.52L388,349.89l-9.42-9.42-.26,13.32a90.35,90.35,0,0,1-180.66,0l-.26-13.35L188,349.9l-32.3,32.39a13.78,13.78,0,0,0-3.11,14.46v0l0,0,32.49,84.58a18.47,18.47,0,0,1-.37,14.08,18,18,0,0,1-10.14,9.61,18.38,18.38,0,0,1-23.7-10.53L118.4,410a50.52,50.52,0,0,1,11.41-53.67l57.4-57.4,17-17-22.78,7.59L101,316.32A13.81,13.81,0,0,0,92.32,325l-18.9,56.8A18.36,18.36,0,0,1,38.58,370.2l19-56.8A50.75,50.75,0,0,1,89.4,281.58l60.5-20.2L166,256l-16.12-5.38L89.3,230.42a50.75,50.75,0,0,1-31.82-31.81l-18.9-56.8a18.36,18.36,0,1,1,34.84-11.62L92.32,187a13.81,13.81,0,0,0,8.69,8.69l80.4,26.8,22.78,7.59-17-17L129.8,155.68A50.35,50.35,0,0,1,118.39,102L150.9,17.41A18.1,18.1,0,0,1,168,5.69a18.49,18.49,0,0,1,6.6,1.21,18.22,18.22,0,0,1,10.52,23.65l-.38,1v.11L152.6,115.29a13.69,13.69,0,0,0,3.09,14.52l48.3,48.3,9.68,9.68V160a74.4,74.4,0,0,1,42.25-67.07,6.66,6.66,0,0,1,2.89-.69c4.08,0,7.52,4.1,7.52,9V112a21.67,21.67,0,0,0,43.34,0V101.2a9.75,9.75,0,0,1,2.45-6.57,6.84,6.84,0,0,1,5-2.43,6.69,6.69,0,0,1,2.9.71A74.42,74.42,0,0,1,362.33,160v27.81L372,178.1l48.3-48.39a13.78,13.78,0,0,0,3.11-14.46v0l0,0L390.9,30.59a18.46,18.46,0,0,1,10.55-23.7A18.06,18.06,0,0,1,408,5.64h0M408,0A24.05,24.05,0,0,0,385.6,32.6l32.5,84.6a8,8,0,0,1-1.8,8.5L368,174.1V160a80.08,80.08,0,0,0-45.5-72.2,12.25,12.25,0,0,0-5.35-1.27c-7.1,0-13.15,6.56-13.15,14.67V112a16,16,0,0,1-32,0V101.2c0-8.12-6.08-14.63-13.19-14.63a12.38,12.38,0,0,0-5.31,1.23A80.08,80.08,0,0,0,208,160v14.1l-48.3-48.3a8.09,8.09,0,0,1-1.8-8.5l32.5-84.6v-.1a23.9,23.9,0,0,0-13.8-31A24.3,24.3,0,0,0,168,0,23.88,23.88,0,0,0,145.6,15.4L113.1,100a56,56,0,0,0,12.7,59.7l57.4,57.4-80.4-26.8a8.09,8.09,0,0,1-5.1-5.1L78.8,128.4a24,24,0,1,0-45.6,15.2l18.9,56.8a56.16,56.16,0,0,0,35.4,35.4L148.1,256,87.6,276.2a56.16,56.16,0,0,0-35.4,35.4l-19,56.8a24,24,0,1,0,45.6,15.2l18.9-56.8a8.09,8.09,0,0,1,5.1-5.1l80.4-26.8-57.4,57.4A56.15,56.15,0,0,0,113.1,412l32.5,84.6A24,24,0,0,0,168,512a24.27,24.27,0,0,0,8.59-1.58,24,24,0,0,0,13.8-31l-32.5-84.6a8,8,0,0,1,1.8-8.5L192,353.9a96,96,0,0,0,192,0l32.3,32.3a8.09,8.09,0,0,1,1.8,8.5l-32.5,84.6a23.9,23.9,0,0,0,13.8,31,24.3,24.3,0,0,0,8.61,1.58A23.88,23.88,0,0,0,430.4,496.5L462.9,412a56,56,0,0,0-12.7-59.7l-57.4-57.4,80.4,26.8a8.09,8.09,0,0,1,5.1,5.1l18.9,56.8a24,24,0,1,0,45.6-15.2l-18.9-56.8a56.16,56.16,0,0,0-35.4-35.4L427.9,256l60.5-20.2a56.16,56.16,0,0,0,35.4-35.4l18.9-56.8a24,24,0,1,0-45.6-15.2l-18.9,56.8a8.09,8.09,0,0,1-5.1,5.1l-80.4,26.8,57.4-57.4A56.15,56.15,0,0,0,462.8,100L430.4,15.4A24,24,0,0,0,408,0Z" fill="#ff2e63"/>
</svg>
