<svg id="Capa_1" enable-background="new 0 0 589.848 589.848" height="512" viewBox="0 0 589.848 589.848" width="512" xmlns="http://www.w3.org/2000/svg"><g><g><circle cx="304.438" cy="161.733" r="9.514"/><path d="m569.603 520.921-10.018-2.007c-13.747-2.749-25.944-10.427-34.382-21.625 4.823-11.093 7.563-23.185 7.563-35.724 0-30.092-14.946-58.024-39.986-74.711l-64.588-43.059c-23.879-15.916-38.131-42.545-38.131-71.248v-26.743c11.017-3.691 19.027-13.985 19.027-26.229 0-.771-.029-1.532-.095-2.312l-7.991-95.955c-1.227-14.68-13.719-26.172-28.446-26.172h-22.072c-12.216 0-22.785 7.953-26.771 19.027h-13.024c-12.701 0-24.65 4.957-33.631 13.938l-13.795 13.785-40.899-8.172c-1.741-.342-3.501-.523-5.261-.523-14.794 0-26.829 12.035-26.829 26.819v36.513c0 17.496 11.854 32.689 28.826 36.923l40.072 10.018c4.243 1.066 7.211 4.861 7.211 9.238v40.68l-7.516 22.538-21.292-8.515c-4.9-1.969-10.085-2.968-15.393-2.968-22.842 0-41.423 18.58-41.423 41.423v41.851c0 17.039 13.852 30.891 30.881 30.891 14.194 0 26.524-9.618 29.959-23.394l2.826-11.302 4.395 1.76c2.664 16.202 8.962 31.557 18.656 45.133l15.764 22.072-6.393 60.868h-.951c-20.987 0-38.055 17.068-38.055 38.055 0 10.494 8.534 19.027 19.027 19.027h38.055c0 10.494 8.534 19.027 19.027 19.027h104.65c15.736 0 28.541-12.805 28.541-28.541v-3.33l13.643-6.06c13.443 12.073 30.996 18.904 49.195 18.904h54.666c13.899 0 25.202-11.302 25.202-25.192.001-11.978-8.523-22.377-20.244-24.708zm-269.656-235.511h-14.537v-19.027h14.537c24.279 0 48.558-4.823 71.086-13.909v17.353c-22.214 10.17-46.645 15.583-71.086 15.583zm41.061-162.522c.409-4.9 4.567-8.724 9.476-8.724h22.062c4.909 0 9.076 3.825 9.485 8.724l8.03 96.688c0 4.823-3.929 8.753-8.753 8.753h-39.577c-4.823 0-8.753-3.929-8.753-8.753zm-122.384 29.483 7.345 1.475c-3.111 7.383-9.133 13.081-16.677 15.726v-9.552c.009-4.823 4.652-8.619 9.332-7.649zm45.171 72.637-40.072-10.018c-8.496-2.122-14.423-9.713-14.423-18.466v-7.24c16.754-3.368 30.273-15.488 35.572-31.662l24.64 4.928 20.997-20.997c5.309-5.318 12.663-8.363 20.179-8.363h10.37l-7.002 84.091c-.067.761-.095 1.522-.095 2.293 0 11.102 6.593 20.635 16.031 25.078-9.923 1.779-19.979 2.702-30.044 2.702h-15.079c-2.046-10.768-10.124-19.606-21.074-22.346zm-52.154 174.566c-6.536 0-11.854-5.318-11.854-11.854v-41.85c0-12.349 10.046-22.405 22.395-22.405 2.873 0 5.661.542 8.324 1.608l22.348 8.933c-3.282 9.923-5.033 20.226-5.356 30.644l-2.759-1.104-7.896-15.793-17.02 8.515 7.944 15.878-4.614 18.457c-1.332 5.28-6.06 8.971-11.512 8.971zm216.474 146.035v15.698c0 5.252-4.272 9.514-9.514 9.514h-104.65c0-10.494 8.534-19.027 19.027-19.027h46.322l-38.235-57.348c-5.29-7.934-8.087-17.163-8.087-26.705 0-27.095 22.043-49.138 49.148-49.138 9.533 0 18.77 2.797 26.705 8.096l14.014 9.333 10.551-15.831-14.014-9.333c-9.009-6.013-19.246-9.58-29.911-10.75.381-3.358.59-6.745.59-10.123 0-13.871-3.282-27.77-9.485-40.186l-1.027-2.064-17.02 8.515 1.027 2.064c4.89 9.78 7.478 20.74 7.478 31.671 0 3.511-.371 7.069-.932 10.703-31.861 5.708-56.15 33.564-56.15 67.043 0 13.3 3.901 26.191 11.283 37.256l18.504 27.77h-10.76c-14.023 0-26.163 7.706-32.765 19.027h-43.344c0-10.494 8.534-19.027 19.027-19.027h18.076l17.362-164.986c1.418-13.5 7.497-26.239 17.087-35.838l1.751-1.75-13.433-13.471-1.77 1.76c-12.672 12.682-20.683 29.483-22.566 47.312l-6.165 58.557-3.282-4.605c-10.836-15.193-16.573-33.079-16.573-51.745 0-9.58 1.541-19.046 4.567-28.151l11.806-35.41h17.191c24.859 0 49.728-5.033 72.703-14.546 4.728 28.237 20.702 53.552 44.99 69.735l64.588 43.059c19.731 13.148 31.509 35.153 31.509 58.88 0 27.942-16.497 53.324-42.022 64.674zm136.541 6.184h-54.666c-10.532 0-20.749-3.14-29.473-8.743 14.023-6.469 25.715-16.354 34.535-28.332 10.827 11.664 25.04 19.693 40.795 22.842l10.027 2.007c2.864.58 4.947 3.12 4.947 6.06 0 3.398-2.769 6.166-6.165 6.166z"/><path d="m190.274 104.65v-57.082c0-15.736-12.805-28.541-28.541-28.541h-11.264c-3.939-11.045-14.404-19.027-26.791-19.027h-55.075c-9.428 0-18.552 2.759-26.381 7.991l-16.564 11.036h-25.658v19.027h31.424l21.358-14.232c4.69-3.14 10.161-4.795 15.821-4.795h55.075c5.242 0 9.514 4.262 9.514 9.514s-4.272 9.514-9.514 9.514h-43.934l-3.634 7.268c-3.625 7.249-10.912 11.759-19.027 11.759v19.027c6.812 0 13.3-1.712 19.027-4.776v42.831h-76.11v19.027h161.733c15.735 0 28.541-12.805 28.541-28.541zm-19.028 0c0 5.252-4.272 9.514-9.514 9.514h-66.595v-57.082h28.541c12.387 0 22.852-7.982 26.791-19.027h11.264c5.242 0 9.514 4.262 9.514 9.514v57.081z"/></g></g></svg>