<svg id="Capa_1" data-name="Capa 1" xmlns="http://www.w3.org/2000/svg" viewBox="0 0 198.1 82.59"><defs><style>.cls-1{fill:#1d1d1b;}</style></defs><path class="cls-1" d="M83.31,28.39a13.77,13.77,0,0,1-.5,3.73,13.42,13.42,0,0,1-1.43,3.31,13.78,13.78,0,0,1-2.22,2.77,13.47,13.47,0,0,1-2.86,2.11,14.13,14.13,0,0,1-3.38,1.35,14.7,14.7,0,0,1-3.77.47H60a1.16,1.16,0,0,1-.6-.15c-.17-.09-.26-.3-.26-.63V15.44a.88.88,0,0,1,.22-.63.77.77,0,0,1,.64-.25h9.14a14.21,14.21,0,0,1,3.76.49,14.52,14.52,0,0,1,3.38,1.37,14.19,14.19,0,0,1,2.86,2.13,13,13,0,0,1,2.22,2.79,13.88,13.88,0,0,1,1.43,3.32A13.44,13.44,0,0,1,83.31,28.39Zm-17-7.17V35.49h1.56l.84,0c.27,0,.54,0,.81-.06a7.57,7.57,0,0,0,2.6-.68,7.31,7.31,0,0,0,2.1-1.48,6.84,6.84,0,0,0,1.41-2.16,7.11,7.11,0,0,0,.51-2.71A6.93,6.93,0,0,0,74,23.24a7.2,7.2,0,0,0-2.34-1.49,7.86,7.86,0,0,0-2.87-.53Z" transform="translate(-15.14 -11.58)"/><path class="cls-1" d="M109.26,41.82a1.13,1.13,0,0,1-.51.26,2.35,2.35,0,0,1-.51.06h-2.8a1.14,1.14,0,0,1-.57-.13,1.09,1.09,0,0,1-.41-.32,1.77,1.77,0,0,1-.28-.46,3.13,3.13,0,0,1-.19-.54l-.39-1.81a4.56,4.56,0,0,1-.92,1.21,7.26,7.26,0,0,1-1.61,1.17,10,10,0,0,1-4.91,1.24,8,8,0,0,1-6.5-3A10,10,0,0,1,88,36.17a13.85,13.85,0,0,1-.57-4V20a1.64,1.64,0,0,1,.3-1.07,1.23,1.23,0,0,1,1-.36H93a1.66,1.66,0,0,1,1.1.27,1.4,1.4,0,0,1,.3,1.05V32a3.84,3.84,0,0,0,.3,1.51,4.36,4.36,0,0,0,.83,1.27,3.87,3.87,0,0,0,1.21.86,3.58,3.58,0,0,0,1.48.32,5.18,5.18,0,0,0,1.44-.23,4.61,4.61,0,0,0,1.45-.69,4,4,0,0,0,1.12-1.22,3.45,3.45,0,0,0,.44-1.78V20a1.81,1.81,0,0,1,.12-.64,1,1,0,0,1,.36-.48,1.5,1.5,0,0,1,.46-.2,1.77,1.77,0,0,1,.49-.06h4.19a1.3,1.3,0,0,1,1.5,1.43V40.76a1.41,1.41,0,0,1-.15.65,1.24,1.24,0,0,1-.44.47Z" transform="translate(-15.14 -11.58)"/><path class="cls-1" d="M114.2,13a1.69,1.69,0,0,1,.29-1,1.16,1.16,0,0,1,1-.41h4.55a.87.87,0,0,1,.39.1,1.42,1.42,0,0,1,.38.29,1.55,1.55,0,0,1,.3.44,1.4,1.4,0,0,1,.12.58V40.7a1.39,1.39,0,0,1-.4,1.07,1.49,1.49,0,0,1-1,.36h-4.31a1.26,1.26,0,0,1-1-.36,1.71,1.71,0,0,1-.29-1.07Z" transform="translate(-15.14 -11.58)"/><path class="cls-1" d="M140.78,34.88a1.42,1.42,0,0,1,.49-.23,2.24,2.24,0,0,1,.37,0,1.2,1.2,0,0,1,.57.13,1.61,1.61,0,0,1,.54.56l2.08,3.13a2.15,2.15,0,0,1,.17.34.71.71,0,0,1,.09.29.94.94,0,0,1-.27.7,3.29,3.29,0,0,1-.59.47,13.75,13.75,0,0,1-3.33,1.7,11.28,11.28,0,0,1-3.83.64,12.06,12.06,0,0,1-6.1-1.64A12.81,12.81,0,0,1,128.52,39a11.85,11.85,0,0,1-1.89-2.46,12.77,12.77,0,0,1-1.22-2.92,12.4,12.4,0,0,1,1.22-9.48,11.53,11.53,0,0,1,1.89-2.45A12.06,12.06,0,0,1,131,19.83a12.19,12.19,0,0,1,6.1-1.63,12.38,12.38,0,0,1,3.74.54A11.79,11.79,0,0,1,144,20.33l-.06,0a2.13,2.13,0,0,1,.65.56,1.34,1.34,0,0,1,.24.81,1.3,1.3,0,0,1-.22.69L143,25.14a1.49,1.49,0,0,1-1.26.91,1.22,1.22,0,0,1-.41-.09,2.34,2.34,0,0,1-.54-.28A8,8,0,0,0,139,24.8a5.76,5.76,0,0,0-2-.35,4.87,4.87,0,0,0-2.15.48,5,5,0,0,0-1.68,1.29,6.05,6.05,0,0,0-1.08,1.89,6.83,6.83,0,0,0,0,4.55,5.74,5.74,0,0,0,1.08,1.85,5.14,5.14,0,0,0,1.68,1.23,5,5,0,0,0,2.15.46,5.46,5.46,0,0,0,2-.37A9.06,9.06,0,0,0,140.78,34.88Z" transform="translate(-15.14 -11.58)"/><path class="cls-1" d="M168.35,39.31a12.36,12.36,0,0,1-3.67,2.35,11.25,11.25,0,0,1-4.33.84A12.56,12.56,0,0,1,151.58,39a12.45,12.45,0,0,1-2.71-3.87,11.65,11.65,0,0,1-1-4.84,12.35,12.35,0,0,1,.4-3.17,12.09,12.09,0,0,1,1.13-2.86,12.23,12.23,0,0,1,1.78-2.46,11.33,11.33,0,0,1,5.17-3.16,11.22,11.22,0,0,1,3.21-.45,11,11,0,0,1,3,.41,11.29,11.29,0,0,1,2.72,1.15,11.51,11.51,0,0,1,2.33,1.78,12.34,12.34,0,0,1,1.82,2.27,11.39,11.39,0,0,1,1.18,2.64,10.28,10.28,0,0,1,.41,2.88c0,.65,0,1.17,0,1.58a1.8,1.8,0,0,1-.29,1,1.38,1.38,0,0,1-.86.5,8.09,8.09,0,0,1-1.78.14H154.7a4.55,4.55,0,0,0,.75,2,4.64,4.64,0,0,0,1.31,1.27,5.46,5.46,0,0,0,1.57.68,7,7,0,0,0,1.58.2,7.32,7.32,0,0,0,1.37-.14,8.92,8.92,0,0,0,1.37-.37,6.93,6.93,0,0,0,1.2-.54,3.78,3.78,0,0,0,.88-.64,4.17,4.17,0,0,1,.51-.36,1,1,0,0,1,.46-.12.91.91,0,0,1,.49.17,4.14,4.14,0,0,1,.57.48l2,2.23a1.2,1.2,0,0,1,.26.43,1.34,1.34,0,0,1,.06.4,1,1,0,0,1-.21.64A2,2,0,0,1,168.35,39.31Zm-8.92-15.45a3.38,3.38,0,0,0-1.4.29,5,5,0,0,0-1.27.77A6.13,6.13,0,0,0,155.69,26a6.64,6.64,0,0,0-.77,1.24h9.48a11.59,11.59,0,0,0-.84-1.33,5.92,5.92,0,0,0-1-1.08,4.43,4.43,0,0,0-1.34-.72A5.42,5.42,0,0,0,159.43,23.86Z" transform="translate(-15.14 -11.58)"/><path class="cls-1" d="M32.67,84.34a14.48,14.48,0,0,1-1.14,1,9.36,9.36,0,0,1-1.39.88,8.26,8.26,0,0,1-1.62.63,6.74,6.74,0,0,1-1.83.25,11.26,11.26,0,0,1-4.64-1,11,11,0,0,1-3.66-2.59A11.74,11.74,0,0,1,16,79.68a13.77,13.77,0,0,1,0-9.58,11.9,11.9,0,0,1,2.39-3.86,11.13,11.13,0,0,1,3.66-2.58,11.41,11.41,0,0,1,4.64-.93,9,9,0,0,1,1.87.17,7,7,0,0,1,1.54.51,7.26,7.26,0,0,1,1.28.8,9.63,9.63,0,0,1,1.1,1V57.49a1.48,1.48,0,0,1,.36-1,1.41,1.41,0,0,1,1.09-.41H38.1a1.34,1.34,0,0,1,.51.11,1.65,1.65,0,0,1,.5.28,1.74,1.74,0,0,1,.36.45,1.2,1.2,0,0,1,.14.57V85.23c0,1-.5,1.43-1.51,1.43H34.47a1.5,1.5,0,0,1-.58-.09,1.13,1.13,0,0,1-.34-.27,1.9,1.9,0,0,1-.25-.45c-.07-.18-.17-.38-.28-.62ZM21.82,74.9a6.63,6.63,0,0,0,.38,2.29A5.36,5.36,0,0,0,23.28,79a5.12,5.12,0,0,0,3.9,1.69,5.94,5.94,0,0,0,2.23-.42,5.82,5.82,0,0,0,1.83-1.18,5.73,5.73,0,0,0,1.25-1.77A5.82,5.82,0,0,0,33,75.16V74.9a5.91,5.91,0,0,0-1.68-4.16,5.92,5.92,0,0,0-1.85-1.29A5.71,5.71,0,0,0,27.18,69a5.1,5.1,0,0,0-2.2.47,5.29,5.29,0,0,0-1.7,1.29,5.79,5.79,0,0,0-1.08,1.89A6.6,6.6,0,0,0,21.82,74.9Z" transform="translate(-15.14 -11.58)"/><path class="cls-1" d="M64.28,83.84a12.56,12.56,0,0,1-3.67,2.35,11.23,11.23,0,0,1-4.32.84,12.63,12.63,0,0,1-8.78-3.5,12.22,12.22,0,0,1-2.71-3.87,11.58,11.58,0,0,1-1-4.84,12.35,12.35,0,0,1,3.31-8.49,11.75,11.75,0,0,1,2.35-1.92,11.55,11.55,0,0,1,2.82-1.24,11.22,11.22,0,0,1,3.21-.44,11,11,0,0,1,3,.4,12,12,0,0,1,2.72,1.15,11.56,11.56,0,0,1,2.33,1.79,11.93,11.93,0,0,1,1.82,2.27A10.91,10.91,0,0,1,66.52,71a10,10,0,0,1,.41,2.89c0,.64,0,1.17,0,1.57a1.84,1.84,0,0,1-.29,1,1.38,1.38,0,0,1-.86.5,8.77,8.77,0,0,1-1.78.14H50.63a4.53,4.53,0,0,0,2.06,3.25,5,5,0,0,0,1.57.68,6.55,6.55,0,0,0,1.58.21,7.24,7.24,0,0,0,1.37-.14,12,12,0,0,0,1.37-.37,8.33,8.33,0,0,0,1.2-.54,4.09,4.09,0,0,0,.88-.64,4.17,4.17,0,0,1,.51-.36,1,1,0,0,1,.46-.12.89.89,0,0,1,.49.16,3.63,3.63,0,0,1,.57.48l2,2.23a1.1,1.1,0,0,1,.26.44,1.32,1.32,0,0,1,.06.39,1,1,0,0,1-.21.65A2.14,2.14,0,0,1,64.28,83.84ZM55.36,68.38a3.58,3.58,0,0,0-1.4.29,5.19,5.19,0,0,0-1.27.77,6.56,6.56,0,0,0-1.07,1.1,6.33,6.33,0,0,0-.77,1.24h9.48a11.74,11.74,0,0,0-.84-1.34,6.2,6.2,0,0,0-1-1.07,4.68,4.68,0,0,0-1.34-.73A5.42,5.42,0,0,0,55.36,68.38Z" transform="translate(-15.14 -11.58)"/><path class="cls-1" d="M104.22,61.11a1.27,1.27,0,0,1,.47.48.76.76,0,0,1-.06.71l-3.13,4.45a.73.73,0,0,1-.44.36.83.83,0,0,1-.56-.15,7.1,7.1,0,0,0-4.33-1.43,6.69,6.69,0,0,0-5,2.15A7.18,7.18,0,0,0,89.72,70a8.07,8.07,0,0,0,0,5.7,6.89,6.89,0,0,0,3.65,3.89,6.8,6.8,0,0,0,2.8.57,7,7,0,0,0,2.34-.38,7.21,7.21,0,0,0,2-1.06.87.87,0,0,1,.56-.17.77.77,0,0,1,.44.33l3.18,4.57a.73.73,0,0,1,.05.68,1.22,1.22,0,0,1-.46.47,14.83,14.83,0,0,1-3.76,1.81,14.17,14.17,0,0,1-11.4-1.29,14.39,14.39,0,0,1-2.87-2.22,14.66,14.66,0,0,1-2.21-2.86,13.62,13.62,0,0,1-1.43-3.37,14.24,14.24,0,0,1,1.43-11,14.5,14.5,0,0,1,2.21-2.88,13.69,13.69,0,0,1,2.87-2.22,14.57,14.57,0,0,1,3.39-1.43,13.78,13.78,0,0,1,3.77-.51,14,14,0,0,1,4.2.62A14.5,14.5,0,0,1,104.22,61.11Z" transform="translate(-15.14 -11.58)"/><path class="cls-1" d="M132.83,85.29a1.73,1.73,0,0,1-.11.6.91.91,0,0,1-.37.45.88.88,0,0,1-.48.26,2.4,2.4,0,0,1-.48.06h-3.66a1.8,1.8,0,0,1-.63-.1,1.05,1.05,0,0,1-.39-.29,1.67,1.67,0,0,1-.25-.46c-.07-.17-.14-.37-.21-.58l-.25-.84a9.43,9.43,0,0,1-1.14,1,8.15,8.15,0,0,1-1.41.86,8.51,8.51,0,0,1-1.65.61,6.89,6.89,0,0,1-1.82.24,12.3,12.3,0,0,1-3.24-.43,12,12,0,0,1-2.9-1.22,11.73,11.73,0,0,1-2.44-1.89,12,12,0,0,1-1.88-2.46,11.6,11.6,0,0,1-1.21-2.92,12.69,12.69,0,0,1,.51-8.07,12.38,12.38,0,0,1,2.58-3.86A12,12,0,0,1,120,62.73a8.15,8.15,0,0,1,2.14.26,7.91,7.91,0,0,1,1.82.7,7.23,7.23,0,0,1,1.49,1.07,8.71,8.71,0,0,1,1.17,1.34l.54-1.69.3-.75a1.32,1.32,0,0,1,.26-.42.67.67,0,0,1,.35-.19,2.65,2.65,0,0,1,.57,0h2.77a2.4,2.4,0,0,1,.48.06,1,1,0,0,1,.48.26,1.22,1.22,0,0,1,.37.46,1.6,1.6,0,0,1,.11.6ZM114.56,74.9a6.63,6.63,0,0,0,.38,2.29A5.36,5.36,0,0,0,116,79a5.12,5.12,0,0,0,3.9,1.69,5.87,5.87,0,0,0,2.31-.45A6,6,0,0,0,124.08,79a5.58,5.58,0,0,0,1.24-1.84,6,6,0,0,0-1.24-6.45,5.92,5.92,0,0,0-1.85-1.29,5.71,5.71,0,0,0-2.31-.47,5.13,5.13,0,0,0-2.2.47,5.29,5.29,0,0,0-1.7,1.29,5.79,5.79,0,0,0-1.08,1.89A6.6,6.6,0,0,0,114.56,74.9Z" transform="translate(-15.14 -11.58)"/><path class="cls-1" d="M137.38,64.54a1.28,1.28,0,0,1,.46-1.08,1.63,1.63,0,0,1,1-.36h4.21a1.31,1.31,0,0,1,1,.42,1.51,1.51,0,0,1,.37,1v21.3a7.53,7.53,0,0,1-.72,3.25,8.51,8.51,0,0,1-1.95,2.65A9.13,9.13,0,0,1,139,93.52a8.53,8.53,0,0,1-3.31.65h-.45a1.45,1.45,0,0,1-1-.41,1.35,1.35,0,0,1-.35-.92V90.18a1.42,1.42,0,0,1,.42-1.07,1.4,1.4,0,0,1,1-.41h.39a1,1,0,0,0,.69-.31,2.47,2.47,0,0,0,.53-.75,4.23,4.23,0,0,0,.35-.94,3.61,3.61,0,0,0,.12-.86Zm-.1-9.38a1.53,1.53,0,0,1,.34-1.11,1.47,1.47,0,0,1,1-.32H143a1.66,1.66,0,0,1,1,.32,1.35,1.35,0,0,1,.4,1.11v3.61a1.58,1.58,0,0,1-.1.49,2.32,2.32,0,0,1-.29.5,1.62,1.62,0,0,1-.46.4,1.19,1.19,0,0,1-.6.15h-4.3c-.92,0-1.38-.51-1.38-1.54Z" transform="translate(-15.14 -11.58)"/><path class="cls-1" d="M168.68,83.84A12.61,12.61,0,0,1,165,86.19a11.23,11.23,0,0,1-4.32.84,12.63,12.63,0,0,1-8.78-3.5,12.39,12.39,0,0,1-2.71-3.87,11.74,11.74,0,0,1-1-4.84,12.61,12.61,0,0,1,1.53-6,12.28,12.28,0,0,1,1.79-2.46,11.69,11.69,0,0,1,2.34-1.92,11.9,11.9,0,0,1,2.82-1.24,11.32,11.32,0,0,1,3.21-.44,11.06,11.06,0,0,1,3,.4,12.35,12.35,0,0,1,2.72,1.15,11.78,11.78,0,0,1,2.32,1.79,11.56,11.56,0,0,1,1.82,2.27A10.91,10.91,0,0,1,170.91,71a10.05,10.05,0,0,1,.42,2.89c0,.64,0,1.17,0,1.57a1.75,1.75,0,0,1-.29,1,1.38,1.38,0,0,1-.86.5,8.59,8.59,0,0,1-1.77.14H155a4.53,4.53,0,0,0,2.06,3.25,4.92,4.92,0,0,0,1.58.68,6.41,6.41,0,0,0,1.57.21,7.34,7.34,0,0,0,1.38-.14,11.81,11.81,0,0,0,1.36-.37,9,9,0,0,0,1.21-.54,4.66,4.66,0,0,0,.88-.64,4.17,4.17,0,0,1,.51-.36A.89.89,0,0,1,166,79a.86.86,0,0,1,.49.16,3.63,3.63,0,0,1,.57.48l2,2.23a1.4,1.4,0,0,1,.26.44,1.74,1.74,0,0,1,.05.39,1.09,1.09,0,0,1-.2.65A2.67,2.67,0,0,1,168.68,83.84Zm-8.93-15.46a3.58,3.58,0,0,0-1.4.29,5.39,5.39,0,0,0-1.27.77,6.56,6.56,0,0,0-1.07,1.1,6.85,6.85,0,0,0-.77,1.24h9.48a11.74,11.74,0,0,0-.84-1.34,5.86,5.86,0,0,0-1-1.07,4.55,4.55,0,0,0-1.34-.73A5.42,5.42,0,0,0,159.75,68.38Z" transform="translate(-15.14 -11.58)"/><path class="cls-1" d="M175.19,59.42a1,1,0,0,1,.38-.86,4.46,4.46,0,0,1,1.08-.55l4.21-1.46.18,0h.16a1,1,0,0,1,.92.4,2.1,2.1,0,0,1,.23,1l0,5.1h2.54a1.37,1.37,0,0,1,1,.35,1.44,1.44,0,0,1,.37,1.06v3.58a1.56,1.56,0,0,1-.37,1.14,1.34,1.34,0,0,1-1,.36h-2.54l0,15.66a1.36,1.36,0,0,1-.41,1.07,1.65,1.65,0,0,1-1.13.36h-4.19a1.26,1.26,0,0,1-1.43-1.43l0-15.66h-1.91c-.95,0-1.43-.5-1.43-1.5V64.49a1.26,1.26,0,0,1,1.43-1.41h1.91Z" transform="translate(-15.14 -11.58)"/><path class="cls-1" d="M213.24,85.29a1.73,1.73,0,0,1-.11.6,1,1,0,0,1-.37.45.87.87,0,0,1-.49.26,2.24,2.24,0,0,1-.48.06h-3.65a1.91,1.91,0,0,1-.64-.1,1.05,1.05,0,0,1-.39-.29,2,2,0,0,1-.25-.46c-.06-.17-.13-.37-.21-.58l-.24-.84a9.43,9.43,0,0,1-1.14,1,9,9,0,0,1-1.41.86,8.51,8.51,0,0,1-1.65.61,7,7,0,0,1-1.83.24,12.41,12.41,0,0,1-3.24-.43,12.12,12.12,0,0,1-2.89-1.22,11.47,11.47,0,0,1-2.44-1.89,11.62,11.62,0,0,1-1.88-2.46,12,12,0,0,1-1.22-2.92,12.58,12.58,0,0,1-.43-3.27,12,12,0,0,1,12.1-12.17,8.1,8.1,0,0,1,2.14.26,7.74,7.74,0,0,1,1.82.7,7.29,7.29,0,0,1,1.5,1.07A8.14,8.14,0,0,1,207,66.1l.54-1.69.31-.75a1.32,1.32,0,0,1,.26-.42.61.61,0,0,1,.34-.19,2.82,2.82,0,0,1,.58,0h2.76a2.24,2.24,0,0,1,.48.06.94.94,0,0,1,.49.26,1.32,1.32,0,0,1,.37.46,1.6,1.6,0,0,1,.11.6ZM195,74.9a6.88,6.88,0,0,0,.38,2.29A5.54,5.54,0,0,0,196.43,79a5.12,5.12,0,0,0,3.9,1.69,6,6,0,0,0,2.31-.45A6.07,6.07,0,0,0,204.49,79a5.41,5.41,0,0,0,1.23-1.84,6,6,0,0,0-1.23-6.45,6,6,0,0,0-1.85-1.29,5.78,5.78,0,0,0-2.31-.47,5.1,5.1,0,0,0-2.2.47,5.29,5.29,0,0,0-1.7,1.29,6,6,0,0,0-1.09,1.89A6.84,6.84,0,0,0,195,74.9Z" transform="translate(-15.14 -11.58)"/></svg>