<svg id="Capa_1" data-name="Capa 1" xmlns="http://www.w3.org/2000/svg" viewBox="0 0 198.1 82.59"><defs><style>.cls-1{fill:#1d1d1b;}</style></defs><path class="cls-1" d="M30.19,20a13.64,13.64,0,0,1-1.93,7A13.78,13.78,0,0,1,26,29.76a13.51,13.51,0,0,1-2.86,2.12,14.11,14.11,0,0,1-3.38,1.34A14.76,14.76,0,0,1,16,33.7H6.88a1.15,1.15,0,0,1-.59-.15A.67.67,0,0,1,6,32.92V7a.92.92,0,0,1,.21-.63.83.83,0,0,1,.64-.24H16a14.63,14.63,0,0,1,3.76.48A14.27,14.27,0,0,1,23.16,8,14.69,14.69,0,0,1,26,10.12a13,13,0,0,1,2.22,2.78,14,14,0,0,1,1.42,3.32A13.13,13.13,0,0,1,30.19,20Zm-17-7.16V27.05h1.56l.83,0,.82-.07a7.35,7.35,0,0,0,2.6-.68,7.12,7.12,0,0,0,2.1-1.48,6.62,6.62,0,0,0,1.41-2.16A7.07,7.07,0,0,0,23,19.93a7,7,0,0,0-.58-2.87,7,7,0,0,0-3.94-3.74,7.57,7.57,0,0,0-2.86-.53Z" transform="translate(-4.82 -3.14)"/><path class="cls-1" d="M56.14,33.38a1.13,1.13,0,0,1-.51.26,2.35,2.35,0,0,1-.51.06h-2.8a1.19,1.19,0,0,1-1-.45,1.74,1.74,0,0,1-.27-.46,3.13,3.13,0,0,1-.19-.54l-.39-1.81a4.27,4.27,0,0,1-.93,1.21A7.3,7.3,0,0,1,48,32.83a10.85,10.85,0,0,1-2.2.89,10.1,10.1,0,0,1-2.71.35,8.34,8.34,0,0,1-3.75-.82A8.16,8.16,0,0,1,36.54,31a9.88,9.88,0,0,1-1.7-3.29,13.75,13.75,0,0,1-.57-4V11.56a1.61,1.61,0,0,1,.3-1.06,1.2,1.2,0,0,1,1-.37h4.28a1.68,1.68,0,0,1,1.1.27,1.4,1.4,0,0,1,.29,1V23.54a3.9,3.9,0,0,0,.31,1.52,4.24,4.24,0,0,0,.83,1.26,3.71,3.71,0,0,0,1.21.86,3.55,3.55,0,0,0,1.48.32,5.2,5.2,0,0,0,1.44-.22,4.74,4.74,0,0,0,1.45-.7,3.83,3.83,0,0,0,1.11-1.22,3.36,3.36,0,0,0,.45-1.78V11.51a1.76,1.76,0,0,1,.12-.63,1.07,1.07,0,0,1,.36-.49,1.65,1.65,0,0,1,.46-.2,1.77,1.77,0,0,1,.49-.06h4.19a1.49,1.49,0,0,1,1.15.39,1.52,1.52,0,0,1,.35,1V32.32a1.28,1.28,0,0,1-.16.65,1.15,1.15,0,0,1-.43.47Z" transform="translate(-4.82 -3.14)"/><path class="cls-1" d="M61.07,4.55a1.63,1.63,0,0,1,.3-1,1.19,1.19,0,0,1,1-.41h4.55a.87.87,0,0,1,.39.1,1.67,1.67,0,0,1,.38.29A1.66,1.66,0,0,1,68,4a1.32,1.32,0,0,1,.12.57V32.27a1.37,1.37,0,0,1-.39,1.06,1.45,1.45,0,0,1-1,.37H62.39a1.23,1.23,0,0,1-1-.37,1.61,1.61,0,0,1-.3-1.06Z" transform="translate(-4.82 -3.14)"/><path class="cls-1" d="M87.66,26.44a1.34,1.34,0,0,1,.49-.23,2.29,2.29,0,0,1,.36-.05,1.37,1.37,0,0,1,.58.13,1.7,1.7,0,0,1,.54.56L91.7,30a1.48,1.48,0,0,1,.18.33.67.67,0,0,1,.08.3,1,1,0,0,1-.26.69,3.29,3.29,0,0,1-.59.47,13.41,13.41,0,0,1-3.33,1.7,11.32,11.32,0,0,1-3.83.64,12.26,12.26,0,0,1-3.22-.42,11.88,11.88,0,0,1-2.88-1.22,12.81,12.81,0,0,1-2.45-1.89,11.56,11.56,0,0,1-1.9-2.46,12.56,12.56,0,0,1-1.21-2.92,12.48,12.48,0,0,1,1.21-9.48,11.5,11.5,0,0,1,1.9-2.45,12,12,0,0,1,2.45-1.88,11.86,11.86,0,0,1,2.88-1.21A12.26,12.26,0,0,1,84,9.76a12.43,12.43,0,0,1,3.74.54,11.68,11.68,0,0,1,3.22,1.6l-.06-.06a2.14,2.14,0,0,1,.65.57,1.29,1.29,0,0,1,.24.8,1.25,1.25,0,0,1-.22.69l-1.65,2.8a1.49,1.49,0,0,1-1.26.91,1.4,1.4,0,0,1-.41-.08,2.42,2.42,0,0,1-.54-.29,8.44,8.44,0,0,0-1.75-.88,5.76,5.76,0,0,0-2-.34,5,5,0,0,0-3.83,1.76A6.05,6.05,0,0,0,79,19.67a6.83,6.83,0,0,0,0,4.55,5.64,5.64,0,0,0,1.08,1.85,5.12,5.12,0,0,0,3.83,1.69,5.26,5.26,0,0,0,2-.37A8.82,8.82,0,0,0,87.66,26.44Z" transform="translate(-4.82 -3.14)"/><path class="cls-1" d="M115.23,30.88a12.25,12.25,0,0,1-3.68,2.34,11.06,11.06,0,0,1-4.32.85,12.63,12.63,0,0,1-8.77-3.5,12.22,12.22,0,0,1-2.71-3.87,11.62,11.62,0,0,1-1-4.84,12.35,12.35,0,0,1,3.31-8.49,11.3,11.3,0,0,1,2.34-1.92,11.9,11.9,0,0,1,2.82-1.24,11.32,11.32,0,0,1,3.21-.45,11,11,0,0,1,3,.41,11.7,11.7,0,0,1,2.72,1.15,12.19,12.19,0,0,1,2.33,1.78,11.94,11.94,0,0,1,1.81,2.28A10.54,10.54,0,0,1,117.46,18a10,10,0,0,1,.42,2.88c0,.65,0,1.17,0,1.58a1.86,1.86,0,0,1-.28,1,1.45,1.45,0,0,1-.87.5,8.59,8.59,0,0,1-1.77.14H101.57a4.53,4.53,0,0,0,2.06,3.25,5.25,5.25,0,0,0,1.58.68,7,7,0,0,0,1.58.2,6.57,6.57,0,0,0,1.37-.14,8.79,8.79,0,0,0,1.36-.37,7,7,0,0,0,1.21-.54,3.71,3.71,0,0,0,.88-.64,4.17,4.17,0,0,1,.51-.36.86.86,0,0,1,.95,0,4.14,4.14,0,0,1,.56.48l2,2.23a1.09,1.09,0,0,1,.31.83,1,1,0,0,1-.2.64A2.73,2.73,0,0,1,115.23,30.88ZM106.3,15.42a3.62,3.62,0,0,0-1.4.29,5.39,5.39,0,0,0-1.27.77,6.83,6.83,0,0,0-1.06,1.09,6.21,6.21,0,0,0-.77,1.25h9.48a9.88,9.88,0,0,0-.85-1.34,5.61,5.61,0,0,0-1-1.08,4.6,4.6,0,0,0-1.33-.72A5.48,5.48,0,0,0,106.3,15.42Z" transform="translate(-4.82 -3.14)"/><path class="cls-1" d="M22.36,75.9a10.4,10.4,0,0,1-1.15,1,8.91,8.91,0,0,1-1.39.89,8.42,8.42,0,0,1-1.61.63,6.85,6.85,0,0,1-1.83.24,11.34,11.34,0,0,1-4.65-1,11.08,11.08,0,0,1-3.65-2.59,11.79,11.79,0,0,1-2.39-3.86,13.65,13.65,0,0,1,0-9.59A11.9,11.9,0,0,1,8.08,57.8a11,11,0,0,1,3.65-2.57,11.33,11.33,0,0,1,4.65-.94,9.06,9.06,0,0,1,1.87.18,6.19,6.19,0,0,1,1.54.51,6.67,6.67,0,0,1,1.28.79,10.55,10.55,0,0,1,1.1,1V49.06a1.44,1.44,0,0,1,.36-1,1.36,1.36,0,0,1,1.09-.41h4.17a1.4,1.4,0,0,1,.51.1,1.51,1.51,0,0,1,.49.29,1.58,1.58,0,0,1,.37.44,1.24,1.24,0,0,1,.13.58V76.79c0,1-.5,1.43-1.5,1.43H24.16a1.5,1.5,0,0,1-.58-.09.82.82,0,0,1-.34-.27,1.6,1.6,0,0,1-.25-.45l-.28-.62ZM11.5,66.46a6.88,6.88,0,0,0,.38,2.29A5.59,5.59,0,0,0,13,70.6a5,5,0,0,0,1.7,1.23,5.23,5.23,0,0,0,2.19.45,6,6,0,0,0,2.24-.42,5.82,5.82,0,0,0,1.83-1.18,5.91,5.91,0,0,0,1.25-1.77,5.78,5.78,0,0,0,.53-2.19v-.26a5.77,5.77,0,0,0-.45-2.26A5.87,5.87,0,0,0,21,62.3,6,6,0,0,0,19.17,61a5.71,5.71,0,0,0-2.31-.47,5.09,5.09,0,0,0-2.19.47A5.18,5.18,0,0,0,13,62.3a6,6,0,0,0-1.09,1.9A6.79,6.79,0,0,0,11.5,66.46Z" transform="translate(-4.82 -3.14)"/><path class="cls-1" d="M54,75.4a12.56,12.56,0,0,1-3.67,2.35,11.28,11.28,0,0,1-4.33.84,12.42,12.42,0,0,1-11.48-7.36,11.65,11.65,0,0,1-1-4.84,12.61,12.61,0,0,1,1.53-6A12.17,12.17,0,0,1,36.8,57.9,11.1,11.1,0,0,1,39.15,56,11.21,11.21,0,0,1,42,54.73a11.58,11.58,0,0,1,3.21-.44,11,11,0,0,1,3,.41,11.29,11.29,0,0,1,2.72,1.15,11.43,11.43,0,0,1,2.33,1.78A12.34,12.34,0,0,1,55,59.9a10.89,10.89,0,0,1,1.17,2.63,10.05,10.05,0,0,1,.42,2.89c0,.64,0,1.17,0,1.58a1.74,1.74,0,0,1-.28,1,1.41,1.41,0,0,1-.87.5,8.59,8.59,0,0,1-1.77.14H40.31a4.6,4.6,0,0,0,2.06,3.26,5.23,5.23,0,0,0,1.58.67,6.49,6.49,0,0,0,1.58.21,7.32,7.32,0,0,0,1.37-.14,10.08,10.08,0,0,0,1.36-.37,8.47,8.47,0,0,0,1.21-.54,4,4,0,0,0,.88-.64,4.17,4.17,0,0,1,.51-.36.93.93,0,0,1,.46-.12.89.89,0,0,1,.49.16,5.26,5.26,0,0,1,.56.49l2,2.22a1.23,1.23,0,0,1,.26.44,1.34,1.34,0,0,1,.06.4,1,1,0,0,1-.21.64A2.37,2.37,0,0,1,54,75.4ZM45.05,60a3.62,3.62,0,0,0-1.41.28,5.74,5.74,0,0,0-1.27.77,6.9,6.9,0,0,0-1.06,1.1,6.15,6.15,0,0,0-.77,1.24H50A9.76,9.76,0,0,0,49.17,62a5.61,5.61,0,0,0-1-1.08,4.38,4.38,0,0,0-1.33-.72A5.2,5.2,0,0,0,45.05,60Z" transform="translate(-4.82 -3.14)"/><path class="cls-1" d="M93.91,52.67a1.23,1.23,0,0,1,.47.49.77.77,0,0,1-.06.7l-3.14,4.45a.73.73,0,0,1-.43.37.87.87,0,0,1-.57-.16,7,7,0,0,0-2-1.06,7.09,7.09,0,0,0-2.32-.37,6.79,6.79,0,0,0-5,2.15,7.38,7.38,0,0,0-1.45,2.34,7.94,7.94,0,0,0-.52,2.86,7.83,7.83,0,0,0,.52,2.84,7.18,7.18,0,0,0,1.45,2.32,6.79,6.79,0,0,0,5,2.15,7.26,7.26,0,0,0,2.34-.38,7.38,7.38,0,0,0,2-1.07.87.87,0,0,1,.56-.17.81.81,0,0,1,.44.34L94.39,75a.73.73,0,0,1,.06.69,1.19,1.19,0,0,1-.46.46A15,15,0,0,1,90.23,78a13.82,13.82,0,0,1-4.24.64,14.1,14.1,0,0,1-10-4.15,14.14,14.14,0,0,1-2.21-2.85,13.69,13.69,0,0,1-1.43-3.38,14.24,14.24,0,0,1,1.43-11A14,14,0,0,1,76,54.42a13.69,13.69,0,0,1,2.87-2.22,14.68,14.68,0,0,1,3.38-1.43A13.91,13.91,0,0,1,86,50.26a14.08,14.08,0,0,1,4.2.62A14.5,14.5,0,0,1,93.91,52.67Z" transform="translate(-4.82 -3.14)"/><path class="cls-1" d="M122.52,76.85a1.73,1.73,0,0,1-.11.6,1,1,0,0,1-.37.46,1,1,0,0,1-.49.26,3,3,0,0,1-.48,0h-3.65a1.6,1.6,0,0,1-.63-.1,1,1,0,0,1-.39-.29,1.39,1.39,0,0,1-.25-.45l-.22-.59-.24-.83a10.35,10.35,0,0,1-1.14,1,9,9,0,0,1-1.41.86,8.53,8.53,0,0,1-1.65.62,7.4,7.4,0,0,1-1.83.23A12.13,12.13,0,0,1,103.53,77a12.17,12.17,0,0,1-4.32-4.35A12.24,12.24,0,0,1,98,69.73a12.53,12.53,0,0,1-.42-3.27,12.12,12.12,0,0,1,3.52-8.66,12.07,12.07,0,0,1,8.57-3.51,8.68,8.68,0,0,1,2.15.26,8.3,8.3,0,0,1,1.81.7,7.69,7.69,0,0,1,1.5,1.07,7.81,7.81,0,0,1,1.16,1.35l.54-1.69.31-.75a1.28,1.28,0,0,1,.26-.43.72.72,0,0,1,.34-.19,3,3,0,0,1,.58,0h2.76a3,3,0,0,1,.48,0,1,1,0,0,1,.49.26,1.27,1.27,0,0,1,.37.47,1.55,1.55,0,0,1,.11.59ZM104.25,66.46a6.63,6.63,0,0,0,.38,2.29,5.4,5.4,0,0,0,1.08,1.85,5.12,5.12,0,0,0,1.7,1.23,5.24,5.24,0,0,0,2.2.45,5.91,5.91,0,0,0,2.31-.45,5.76,5.76,0,0,0,1.85-1.23A5.63,5.63,0,0,0,115,68.75a6,6,0,0,0,.44-2.29A6,6,0,0,0,115,64.2a6.06,6.06,0,0,0-1.24-1.9A5.92,5.92,0,0,0,111.92,61a5.75,5.75,0,0,0-2.31-.47,5.1,5.1,0,0,0-2.2.47,5.29,5.29,0,0,0-1.7,1.29,5.83,5.83,0,0,0-1.08,1.9A6.54,6.54,0,0,0,104.25,66.46Z" transform="translate(-4.82 -3.14)"/><path class="cls-1" d="M127.06,56.11a1.29,1.29,0,0,1,.47-1.09,1.63,1.63,0,0,1,1-.36h4.21a1.29,1.29,0,0,1,1,.43,1.47,1.47,0,0,1,.37,1V77.4a7.46,7.46,0,0,1-.72,3.25,8.72,8.72,0,0,1-1.95,2.65,9.35,9.35,0,0,1-2.81,1.79,8.71,8.71,0,0,1-3.31.64h-.45a1.45,1.45,0,0,1-1-.41,1.34,1.34,0,0,1-.35-.92V81.75a1.43,1.43,0,0,1,.42-1.08,1.38,1.38,0,0,1,1-.41h.39a1,1,0,0,0,.68-.3,2.88,2.88,0,0,0,.54-.76,4.13,4.13,0,0,0,.34-.93,3.75,3.75,0,0,0,.12-.87ZM127,46.72a1.45,1.45,0,0,1,.34-1.1,1.41,1.41,0,0,1,1-.33h4.3a1.61,1.61,0,0,1,1,.33,1.35,1.35,0,0,1,.4,1.1v3.62a1.28,1.28,0,0,1-.11.48,1.92,1.92,0,0,1-.28.5,1.77,1.77,0,0,1-.46.4,1.22,1.22,0,0,1-.6.16h-4.3c-.92,0-1.38-.52-1.38-1.54Z" transform="translate(-4.82 -3.14)"/><path class="cls-1" d="M158.36,75.4a12.56,12.56,0,0,1-3.67,2.35,11.23,11.23,0,0,1-4.32.84,12.42,12.42,0,0,1-11.49-7.36,11.65,11.65,0,0,1-1-4.84,12.61,12.61,0,0,1,1.53-6,12.17,12.17,0,0,1,1.78-2.45A11.1,11.1,0,0,1,143.54,56a11.21,11.21,0,0,1,2.82-1.25,11.58,11.58,0,0,1,3.21-.44,11.57,11.57,0,0,1,8,3.34,11.93,11.93,0,0,1,1.82,2.27,10.91,10.91,0,0,1,1.18,2.63,10.05,10.05,0,0,1,.42,2.89c0,.64,0,1.17,0,1.58a1.83,1.83,0,0,1-.29,1,1.38,1.38,0,0,1-.86.5,8.7,8.7,0,0,1-1.78.14H144.71a4.6,4.6,0,0,0,.75,2,4.78,4.78,0,0,0,1.31,1.27,5.17,5.17,0,0,0,1.57.67,6.55,6.55,0,0,0,1.58.21,7.24,7.24,0,0,0,1.37-.14,10.22,10.22,0,0,0,1.37-.37,8.33,8.33,0,0,0,1.2-.54,3.78,3.78,0,0,0,.88-.64,4.17,4.17,0,0,1,.51-.36,1,1,0,0,1,.46-.12.89.89,0,0,1,.49.16,4.44,4.44,0,0,1,.57.49l2,2.22a1.1,1.1,0,0,1,.26.44,1.34,1.34,0,0,1,.06.4,1,1,0,0,1-.21.64A2,2,0,0,1,158.36,75.4ZM149.44,60a3.57,3.57,0,0,0-1.4.28,5.52,5.52,0,0,0-1.27.77,7,7,0,0,0-1.07,1.1,6.64,6.64,0,0,0-.77,1.24h9.48a10.79,10.79,0,0,0-.84-1.33,5.92,5.92,0,0,0-1-1.08,4.43,4.43,0,0,0-1.34-.72A5.16,5.16,0,0,0,149.44,60Z" transform="translate(-4.82 -3.14)"/><path class="cls-1" d="M164.87,51a1,1,0,0,1,.38-.87,4.4,4.4,0,0,1,1.09-.54l4.21-1.47.18,0h.16a1,1,0,0,1,.91.4,2,2,0,0,1,.24,1l0,5.1h2.54a1.35,1.35,0,0,1,1,.35,1.4,1.4,0,0,1,.37,1.06v3.58a1.52,1.52,0,0,1-.37,1.14,1.31,1.31,0,0,1-1,.36H172l0,15.66a1.36,1.36,0,0,1-.41,1.07,1.65,1.65,0,0,1-1.13.36h-4.2a1.26,1.26,0,0,1-1.43-1.43V61.13h-1.92c-.95,0-1.42-.5-1.42-1.5V56.05a1.25,1.25,0,0,1,1.42-1.41h1.92Z" transform="translate(-4.82 -3.14)"/><path class="cls-1" d="M202.93,76.85a1.53,1.53,0,0,1-.12.6.92.92,0,0,1-.37.46.94.94,0,0,1-.48.26,3.26,3.26,0,0,1-.48,0h-3.66a1.6,1.6,0,0,1-.63-.1,1,1,0,0,1-.39-.29,1.6,1.6,0,0,1-.25-.45c-.07-.18-.14-.38-.21-.59L196.1,76a12.61,12.61,0,0,1-1.14,1,9.08,9.08,0,0,1-3.06,1.48,7.4,7.4,0,0,1-1.83.23,11.9,11.9,0,0,1-8.57-3.54,12.32,12.32,0,0,1,0-17.31,12.07,12.07,0,0,1,8.57-3.51,8.59,8.59,0,0,1,2.14.26,8.39,8.39,0,0,1,1.82.7,7.33,7.33,0,0,1,1.49,1.07,7.46,7.46,0,0,1,1.17,1.35l.54-1.69c.12-.31.22-.56.31-.75a1.13,1.13,0,0,1,.26-.43.67.67,0,0,1,.34-.19,2.84,2.84,0,0,1,.57,0h2.77a3.26,3.26,0,0,1,.48,0,.94.94,0,0,1,.48.26,1.09,1.09,0,0,1,.37.47,1.38,1.38,0,0,1,.12.59ZM184.65,66.46a6.88,6.88,0,0,0,.38,2.29,5.43,5.43,0,0,0,1.09,1.85,5.08,5.08,0,0,0,1.69,1.23,5.31,5.31,0,0,0,2.2.45,5.89,5.89,0,0,0,4.17-1.68,5.76,5.76,0,0,0,1.23-1.85,5.85,5.85,0,0,0,.45-2.29,5.77,5.77,0,0,0-.45-2.26,6.21,6.21,0,0,0-1.23-1.9A6.08,6.08,0,0,0,192.32,61a5.71,5.71,0,0,0-2.31-.47,5.17,5.17,0,0,0-2.2.47,5.25,5.25,0,0,0-1.69,1.29A5.86,5.86,0,0,0,185,64.2,6.79,6.79,0,0,0,184.65,66.46Z" transform="translate(-4.82 -3.14)"/></svg>